<svg width="617" height="457" viewBox="0 0 617 457" fill="none" xmlns="http://www.w3.org/2000/svg">
<g clip-path="url(#clip0_56_510)">
<path d="M230.085 96.5C227.785 96.5 225.735 96.15 223.935 95.45C222.135 94.7167 220.618 93.7333 219.385 92.5C218.185 91.2667 217.268 89.85 216.635 88.25C216.001 86.65 215.685 84.9667 215.685 83.2C215.685 80.6667 216.235 78.35 217.335 76.25C218.435 74.1167 220.051 72.4167 222.185 71.15C224.318 69.85 226.951 69.2 230.085 69.2C233.218 69.2 235.851 69.8333 237.985 71.1C240.118 72.3667 241.735 74.0333 242.835 76.1C243.935 78.1667 244.485 80.4167 244.485 82.85C244.485 83.35 244.451 83.8667 244.385 84.4C244.351 84.9 244.301 85.35 244.235 85.75H225.785C225.851 86.6833 226.101 87.45 226.535 88.05C227.001 88.6167 227.568 89.0333 228.235 89.3C228.935 89.5667 229.651 89.7 230.385 89.7C231.418 89.7 232.385 89.4667 233.285 89C234.218 88.5333 234.835 87.8833 235.135 87.05L243.185 89.35C242.485 90.75 241.501 91.9833 240.235 93.05C239.001 94.1167 237.535 94.9667 235.835 95.6C234.135 96.2 232.218 96.5 230.085 96.5ZM225.585 80.05H234.285C234.185 79.1833 233.935 78.45 233.535 77.85C233.168 77.25 232.668 76.7833 232.035 76.45C231.435 76.1167 230.735 75.95 229.935 75.95C229.135 75.95 228.418 76.1167 227.785 76.45C227.185 76.7833 226.685 77.25 226.285 77.85C225.918 78.45 225.685 79.1833 225.585 80.05ZM287.273 96L278.423 69.7H288.173L292.873 87.55L297.623 69.7H306.473L297.623 96H287.273ZM355.018 96.5C352.718 96.5 350.668 96.15 348.868 95.45C347.068 94.7167 345.552 93.7333 344.318 92.5C343.118 91.2667 342.202 89.85 341.568 88.25C340.935 86.65 340.618 84.9667 340.618 83.2C340.618 80.6667 341.168 78.35 342.268 76.25C343.368 74.1167 344.985 72.4167 347.118 71.15C349.252 69.85 351.885 69.2 355.018 69.2C358.152 69.2 360.785 69.8333 362.918 71.1C365.052 72.3667 366.668 74.0333 367.768 76.1C368.868 78.1667 369.418 80.4167 369.418 82.85C369.418 83.35 369.385 83.8667 369.318 84.4C369.285 84.9 369.235 85.35 369.168 85.75H350.718C350.785 86.6833 351.035 87.45 351.468 88.05C351.935 88.6167 352.502 89.0333 353.168 89.3C353.868 89.5667 354.585 89.7 355.318 89.7C356.352 89.7 357.318 89.4667 358.218 89C359.152 88.5333 359.768 87.8833 360.068 87.05L368.118 89.35C367.418 90.75 366.435 91.9833 365.168 93.05C363.935 94.1167 362.468 94.9667 360.768 95.6C359.068 96.2 357.152 96.5 355.018 96.5ZM350.518 80.05H359.218C359.118 79.1833 358.868 78.45 358.468 77.85C358.102 77.25 357.602 76.7833 356.968 76.45C356.368 76.1167 355.668 75.95 354.868 75.95C354.068 75.95 353.352 76.1167 352.718 76.45C352.118 76.7833 351.618 77.25 351.218 77.85C350.852 78.45 350.618 79.1833 350.518 80.05ZM424.387 77.8C422.554 77.8 420.887 78 419.387 78.4C417.887 78.8 416.77 79.4667 416.037 80.4V96H406.537V69.7H415.237V74.7C416.17 72.9333 417.337 71.5833 418.737 70.65C420.137 69.6833 421.62 69.2 423.187 69.2C423.554 69.2 423.804 69.2 423.937 69.2C424.104 69.2 424.254 69.2167 424.387 69.25V77.8ZM461.138 98.65C461.905 98.9167 462.605 99.1167 463.238 99.25C463.905 99.4167 464.505 99.5 465.038 99.5C465.738 99.5 466.321 99.3667 466.788 99.1C467.255 98.8667 467.621 98.4833 467.888 97.95C468.155 97.4167 468.321 96.7667 468.388 96L458.838 69.7H468.588L473.588 86.25L477.638 69.7H486.488L477.588 99.15C477.088 100.85 476.271 102.333 475.138 103.6C474.005 104.9 472.655 105.9 471.088 106.6C469.521 107.333 467.838 107.7 466.038 107.7C465.205 107.7 464.371 107.617 463.538 107.45C462.738 107.317 461.938 107.083 461.138 106.75V98.65Z" fill="url(#paint0_linear_56_510)"/>
<path d="M203.647 371.668H160.031ZM214.551 340.629H149.128Z" fill="#FF680D"/>
<path d="M149.128 309.591V294.071C149.128 275.319 127.633 257.581 113.69 244.926C94.0356 227.098 83.7041 203.146 83.7041 175.089C83.7041 123.357 127.136 81.972 181.839 81.972M203.647 371.668H160.031M214.551 340.629H149.128" stroke="url(#paint1_linear_56_510)" stroke-width="20" stroke-linecap="round" stroke-linejoin="round"/>
<path d="M400.434 327.937C400.354 319.688 401.93 312.193 405.165 305.454C408.508 298.604 413.075 293.173 418.866 289.161C424.655 285.039 431.345 282.944 438.935 282.876C445.535 282.817 451.491 284.468 456.804 287.831C462.228 291.192 466.449 295.39 469.468 300.423L468.974 249.935L487.123 249.773L488.102 349.758C488.123 351.848 488.522 353.329 489.301 354.202C490.08 355.075 491.349 355.559 493.11 355.653L493.253 370.173C489.848 370.753 487.211 371.052 485.341 371.069C481.931 371.099 479.007 370.135 476.567 368.177C474.238 366.218 473.005 363.864 472.868 361.115L472.64 354.682C469.394 360.211 464.981 364.541 459.401 367.671C453.821 370.691 448.006 372.228 441.956 372.282C436.016 372.335 430.505 371.23 425.423 368.965C420.45 366.7 416.073 363.494 412.293 359.347C408.622 355.2 405.715 350.441 403.572 345.07C401.54 339.698 400.494 333.987 400.434 327.937ZM469.85 339.361L469.628 316.757C468.384 313.248 466.373 310.131 463.596 307.406C460.929 304.57 457.882 302.342 454.456 300.722C451.139 299.102 447.832 298.307 444.532 298.336C440.682 298.371 437.17 299.227 433.996 300.906C430.933 302.583 428.259 304.807 425.976 307.578C423.803 310.347 422.129 313.497 420.954 317.028C419.778 320.559 419.209 324.249 419.247 328.099C419.286 332.059 419.982 335.793 421.337 339.301C422.69 342.699 424.59 345.762 427.037 348.49C429.593 351.107 432.473 353.171 435.678 354.683C438.992 356.083 442.574 356.766 446.424 356.732C448.844 356.71 451.259 356.248 453.67 355.347C456.192 354.444 458.545 353.213 460.73 351.653C463.024 350.093 464.932 348.26 466.451 346.157C468.081 344.052 469.213 341.787 469.85 339.361Z" fill="url(#paint2_linear_56_510)"/>
<path d="M177.211 280.475L176.524 210.353L164.974 210.456L164.837 196.432L176.387 196.329L176.353 192.864C176.284 185.824 177.324 179.71 179.473 174.52C181.732 169.33 184.883 165.341 188.926 162.555C193.078 159.658 197.959 158.184 203.569 158.134C207.089 158.102 210.558 158.566 213.978 159.525C217.396 160.375 220.654 161.611 223.75 163.233L219.922 176.798C218.262 175.713 216.274 174.906 213.958 174.376C211.752 173.736 209.604 173.425 207.514 173.444C203.334 173.481 200.105 175.105 197.826 178.316C195.547 181.526 194.438 186.157 194.497 192.206L194.536 196.166L216.645 195.968L216.782 209.992L194.673 210.19L195.36 280.312L177.211 280.475Z" fill="url(#paint3_linear_56_510)"/>
<g filter="url(#filter0_f_56_510)">
<g filter="url(#filter1_d_56_510)">
<ellipse cx="315.202" cy="322.608" rx="50.3257" ry="38.5019" fill="#FF680D"/>
</g>
<g filter="url(#filter2_d_56_510)">
<ellipse cx="315.202" cy="303.358" rx="50.3257" ry="28.8764" fill="#4F070D"/>
</g>
<g filter="url(#filter3_d_56_510)">
<ellipse cx="315.202" cy="279.294" rx="50.3257" ry="24.0637" fill="#FFB700"/>
</g>
<g filter="url(#filter4_d_56_510)">
<ellipse cx="355.463" cy="240.792" rx="40.2606" ry="24.0637" fill="#33FF00"/>
</g>
<g filter="url(#filter5_d_56_510)">
<ellipse cx="279.974" cy="240.792" rx="35.228" ry="24.0637" fill="#33FF00"/>
</g>
<g filter="url(#filter6_d_56_510)">
<ellipse cx="305.137" cy="260.043" rx="40.2606" ry="24.0637" fill="#33FF00"/>
</g>
<g filter="url(#filter7_dd_56_510)">
<ellipse cx="315.202" cy="231.167" rx="50.3257" ry="24.0637" fill="#FF0000"/>
</g>
<g filter="url(#filter8_d_56_510)">
<ellipse cx="315.202" cy="192.665" rx="50.3257" ry="33.6891" fill="#FF680D"/>
</g>
<ellipse cx="280.693" cy="188.454" rx="5.75151" ry="4.21114" fill="#FFAF37"/>
<ellipse cx="338.208" cy="171.609" rx="5.75151" ry="4.21114" fill="#FFAF37"/>
<ellipse cx="315.203" cy="188.454" rx="5.75151" ry="4.21114" fill="#FFAF37"/>
<ellipse cx="303.7" cy="205.298" rx="5.75151" ry="4.21114" fill="#FFAF37"/>
<ellipse cx="338.208" cy="205.298" rx="5.75151" ry="4.21114" fill="#FFAF37"/>
<ellipse cx="349.712" cy="188.454" rx="5.75151" ry="4.21114" fill="#FFAF37"/>
<ellipse cx="303.7" cy="171.609" rx="5.75151" ry="4.21114" fill="#FFAF37"/>
</g>
<g filter="url(#filter9_d_56_510)">
<ellipse cx="315.202" cy="332.234" rx="50.3257" ry="38.5019" fill="#FF680D"/>
</g>
<g filter="url(#filter10_d_56_510)">
<ellipse cx="315.202" cy="312.983" rx="50.3257" ry="28.8764" fill="#4F070D"/>
</g>
<g filter="url(#filter11_d_56_510)">
<ellipse cx="315.202" cy="288.919" rx="50.3257" ry="24.0637" fill="#FFB700"/>
</g>
<g filter="url(#filter12_d_56_510)">
<ellipse cx="355.463" cy="250.417" rx="40.2606" ry="24.0637" fill="#33FF00"/>
</g>
<g filter="url(#filter13_d_56_510)">
<ellipse cx="279.974" cy="250.417" rx="35.228" ry="24.0637" fill="#33FF00"/>
</g>
<g filter="url(#filter14_d_56_510)">
<ellipse cx="305.137" cy="269.668" rx="40.2606" ry="24.0637" fill="#33FF00"/>
</g>
<g filter="url(#filter15_dd_56_510)">
<ellipse cx="315.202" cy="240.792" rx="50.3257" ry="24.0637" fill="#FF0000"/>
</g>
<g filter="url(#filter16_d_56_510)">
<ellipse cx="315.202" cy="202.29" rx="50.3257" ry="33.6891" fill="#FF680D"/>
</g>
<ellipse cx="280.693" cy="198.079" rx="5.75151" ry="4.21114" fill="#FFAF37"/>
<ellipse cx="338.208" cy="181.234" rx="5.75151" ry="4.21114" fill="#FFAF37"/>
<ellipse cx="315.203" cy="198.079" rx="5.75151" ry="4.21114" fill="#FFAF37"/>
<ellipse cx="303.7" cy="214.924" rx="5.75151" ry="4.21114" fill="#FFAF37"/>
<ellipse cx="338.208" cy="214.924" rx="5.75151" ry="4.21114" fill="#FFAF37"/>
<ellipse cx="351.149" cy="201.689" rx="5.75151" ry="4.21114" fill="#FFAF37"/>
<ellipse cx="303.7" cy="181.234" rx="5.75151" ry="4.21114" fill="#FFAF37"/>
</g>
<defs>
<filter id="filter0_f_56_510" x="214.746" y="128.976" width="210.977" height="262.135" filterUnits="userSpaceOnUse" color-interpolation-filters="sRGB">
<feFlood flood-opacity="0" result="BackgroundImageFix"/>
<feBlend mode="normal" in="SourceGraphic" in2="BackgroundImageFix" result="shape"/>
<feGaussianBlur stdDeviation="15" result="effect1_foregroundBlur_56_510"/>
</filter>
<filter id="filter1_d_56_510" x="264.877" y="284.107" width="100.651" height="78.0037" filterUnits="userSpaceOnUse" color-interpolation-filters="sRGB">
<feFlood flood-opacity="0" result="BackgroundImageFix"/>
<feColorMatrix in="SourceAlpha" type="matrix" values="0 0 0 0 0 0 0 0 0 0 0 0 0 0 0 0 0 0 127 0" result="hardAlpha"/>
<feOffset dy="1"/>
<feComposite in2="hardAlpha" operator="out"/>
<feColorMatrix type="matrix" values="0 0 0 0 0.811765 0 0 0 0 0.32549 0 0 0 0 0.0352941 0 0 0 1 0"/>
<feBlend mode="normal" in2="BackgroundImageFix" result="effect1_dropShadow_56_510"/>
<feBlend mode="normal" in="SourceGraphic" in2="effect1_dropShadow_56_510" result="shape"/>
</filter>
<filter id="filter2_d_56_510" x="264.877" y="274.481" width="100.651" height="58.7528" filterUnits="userSpaceOnUse" color-interpolation-filters="sRGB">
<feFlood flood-opacity="0" result="BackgroundImageFix"/>
<feColorMatrix in="SourceAlpha" type="matrix" values="0 0 0 0 0 0 0 0 0 0 0 0 0 0 0 0 0 0 127 0" result="hardAlpha"/>
<feOffset dy="1"/>
<feComposite in2="hardAlpha" operator="out"/>
<feColorMatrix type="matrix" values="0 0 0 0 0.2125 0 0 0 0 0.0265625 0 0 0 0 0.0420573 0 0 0 1 0"/>
<feBlend mode="normal" in2="BackgroundImageFix" result="effect1_dropShadow_56_510"/>
<feBlend mode="normal" in="SourceGraphic" in2="effect1_dropShadow_56_510" result="shape"/>
</filter>
<filter id="filter3_d_56_510" x="264.877" y="255.23" width="100.651" height="48.3273" filterUnits="userSpaceOnUse" color-interpolation-filters="sRGB">
<feFlood flood-opacity="0" result="BackgroundImageFix"/>
<feColorMatrix in="SourceAlpha" type="matrix" values="0 0 0 0 0 0 0 0 0 0 0 0 0 0 0 0 0 0 127 0" result="hardAlpha"/>
<feOffset dy="0.2"/>
<feComposite in2="hardAlpha" operator="out"/>
<feColorMatrix type="matrix" values="0 0 0 0 1 0 0 0 0 0.839 0 0 0 0 0.425 0 0 0 1 0"/>
<feBlend mode="normal" in2="BackgroundImageFix" result="effect1_dropShadow_56_510"/>
<feBlend mode="normal" in="SourceGraphic" in2="effect1_dropShadow_56_510" result="shape"/>
</filter>
<filter id="filter4_d_56_510" x="315.202" y="216.728" width="80.5211" height="48.6273" filterUnits="userSpaceOnUse" color-interpolation-filters="sRGB">
<feFlood flood-opacity="0" result="BackgroundImageFix"/>
<feColorMatrix in="SourceAlpha" type="matrix" values="0 0 0 0 0 0 0 0 0 0 0 0 0 0 0 0 0 0 127 0" result="hardAlpha"/>
<feOffset dy="0.5"/>
<feComposite in2="hardAlpha" operator="out"/>
<feColorMatrix type="matrix" values="0 0 0 0 0.1275 0 0 0 0 0.6375 0 0 0 0 0 0 0 0 1 0"/>
<feBlend mode="normal" in2="BackgroundImageFix" result="effect1_dropShadow_56_510"/>
<feBlend mode="normal" in="SourceGraphic" in2="effect1_dropShadow_56_510" result="shape"/>
</filter>
<filter id="filter5_d_56_510" x="244.746" y="216.728" width="70.456" height="48.6273" filterUnits="userSpaceOnUse" color-interpolation-filters="sRGB">
<feFlood flood-opacity="0" result="BackgroundImageFix"/>
<feColorMatrix in="SourceAlpha" type="matrix" values="0 0 0 0 0 0 0 0 0 0 0 0 0 0 0 0 0 0 127 0" result="hardAlpha"/>
<feOffset dy="0.5"/>
<feComposite in2="hardAlpha" operator="out"/>
<feColorMatrix type="matrix" values="0 0 0 0 0.155833 0 0 0 0 0.779167 0 0 0 0 0 0 0 0 1 0"/>
<feBlend mode="normal" in2="BackgroundImageFix" result="effect1_dropShadow_56_510"/>
<feBlend mode="normal" in="SourceGraphic" in2="effect1_dropShadow_56_510" result="shape"/>
</filter>
<filter id="filter6_d_56_510" x="264.877" y="235.979" width="80.5212" height="48.6273" filterUnits="userSpaceOnUse" color-interpolation-filters="sRGB">
<feFlood flood-opacity="0" result="BackgroundImageFix"/>
<feColorMatrix in="SourceAlpha" type="matrix" values="0 0 0 0 0 0 0 0 0 0 0 0 0 0 0 0 0 0 127 0" result="hardAlpha"/>
<feOffset dy="0.5"/>
<feComposite in2="hardAlpha" operator="out"/>
<feColorMatrix type="matrix" values="0 0 0 0 0.148972 0 0 0 0 0.720833 0 0 0 0 0.00600694 0 0 0 1 0"/>
<feBlend mode="normal" in2="BackgroundImageFix" result="effect1_dropShadow_56_510"/>
<feBlend mode="normal" in="SourceGraphic" in2="effect1_dropShadow_56_510" result="shape"/>
</filter>
<filter id="filter7_dd_56_510" x="264.877" y="207.103" width="100.651" height="48.6273" filterUnits="userSpaceOnUse" color-interpolation-filters="sRGB">
<feFlood flood-opacity="0" result="BackgroundImageFix"/>
<feColorMatrix in="SourceAlpha" type="matrix" values="0 0 0 0 0 0 0 0 0 0 0 0 0 0 0 0 0 0 127 0" result="hardAlpha"/>
<feOffset dy="0.5"/>
<feComposite in2="hardAlpha" operator="out"/>
<feColorMatrix type="matrix" values="0 0 0 0 0.820833 0 0 0 0 0.153359 0 0 0 0 0.00684028 0 0 0 1 0"/>
<feBlend mode="normal" in2="BackgroundImageFix" result="effect1_dropShadow_56_510"/>
<feColorMatrix in="SourceAlpha" type="matrix" values="0 0 0 0 0 0 0 0 0 0 0 0 0 0 0 0 0 0 127 0" result="hardAlpha"/>
<feOffset dy="0.5"/>
<feComposite in2="hardAlpha" operator="out"/>
<feColorMatrix type="matrix" values="0 0 0 0 0.820833 0 0 0 0 0.153359 0 0 0 0 0.00684028 0 0 0 1 0"/>
<feBlend mode="normal" in2="effect1_dropShadow_56_510" result="effect2_dropShadow_56_510"/>
<feBlend mode="normal" in="SourceGraphic" in2="effect2_dropShadow_56_510" result="shape"/>
</filter>
<filter id="filter8_d_56_510" x="264.877" y="158.976" width="100.651" height="68.3783" filterUnits="userSpaceOnUse" color-interpolation-filters="sRGB">
<feFlood flood-opacity="0" result="BackgroundImageFix"/>
<feColorMatrix in="SourceAlpha" type="matrix" values="0 0 0 0 0 0 0 0 0 0 0 0 0 0 0 0 0 0 127 0" result="hardAlpha"/>
<feOffset dy="1"/>
<feComposite in2="hardAlpha" operator="out"/>
<feColorMatrix type="matrix" values="0 0 0 0 0.8125 0 0 0 0 0.326651 0 0 0 0 0.0338542 0 0 0 1 0"/>
<feBlend mode="normal" in2="BackgroundImageFix" result="effect1_dropShadow_56_510"/>
<feBlend mode="normal" in="SourceGraphic" in2="effect1_dropShadow_56_510" result="shape"/>
</filter>
<filter id="filter9_d_56_510" x="264.877" y="293.732" width="100.651" height="87.0037" filterUnits="userSpaceOnUse" color-interpolation-filters="sRGB">
<feFlood flood-opacity="0" result="BackgroundImageFix"/>
<feColorMatrix in="SourceAlpha" type="matrix" values="0 0 0 0 0 0 0 0 0 0 0 0 0 0 0 0 0 0 127 0" result="hardAlpha"/>
<feOffset dy="10"/>
<feComposite in2="hardAlpha" operator="out"/>
<feColorMatrix type="matrix" values="0 0 0 0 0.811765 0 0 0 0 0.32549 0 0 0 0 0.0352941 0 0 0 1 0"/>
<feBlend mode="normal" in2="BackgroundImageFix" result="effect1_dropShadow_56_510"/>
<feBlend mode="normal" in="SourceGraphic" in2="effect1_dropShadow_56_510" result="shape"/>
</filter>
<filter id="filter10_d_56_510" x="264.877" y="284.107" width="100.651" height="67.7528" filterUnits="userSpaceOnUse" color-interpolation-filters="sRGB">
<feFlood flood-opacity="0" result="BackgroundImageFix"/>
<feColorMatrix in="SourceAlpha" type="matrix" values="0 0 0 0 0 0 0 0 0 0 0 0 0 0 0 0 0 0 127 0" result="hardAlpha"/>
<feOffset dy="10"/>
<feComposite in2="hardAlpha" operator="out"/>
<feColorMatrix type="matrix" values="0 0 0 0 0.2125 0 0 0 0 0.0265625 0 0 0 0 0.0420573 0 0 0 1 0"/>
<feBlend mode="normal" in2="BackgroundImageFix" result="effect1_dropShadow_56_510"/>
<feBlend mode="normal" in="SourceGraphic" in2="effect1_dropShadow_56_510" result="shape"/>
</filter>
<filter id="filter11_d_56_510" x="264.877" y="264.856" width="100.651" height="52.1273" filterUnits="userSpaceOnUse" color-interpolation-filters="sRGB">
<feFlood flood-opacity="0" result="BackgroundImageFix"/>
<feColorMatrix in="SourceAlpha" type="matrix" values="0 0 0 0 0 0 0 0 0 0 0 0 0 0 0 0 0 0 127 0" result="hardAlpha"/>
<feOffset dy="4"/>
<feComposite in2="hardAlpha" operator="out"/>
<feColorMatrix type="matrix" values="0 0 0 0 1 0 0 0 0 0.839 0 0 0 0 0.425 0 0 0 1 0"/>
<feBlend mode="normal" in2="BackgroundImageFix" result="effect1_dropShadow_56_510"/>
<feBlend mode="normal" in="SourceGraphic" in2="effect1_dropShadow_56_510" result="shape"/>
</filter>
<filter id="filter12_d_56_510" x="315.202" y="226.354" width="80.5211" height="53.1273" filterUnits="userSpaceOnUse" color-interpolation-filters="sRGB">
<feFlood flood-opacity="0" result="BackgroundImageFix"/>
<feColorMatrix in="SourceAlpha" type="matrix" values="0 0 0 0 0 0 0 0 0 0 0 0 0 0 0 0 0 0 127 0" result="hardAlpha"/>
<feOffset dy="5"/>
<feComposite in2="hardAlpha" operator="out"/>
<feColorMatrix type="matrix" values="0 0 0 0 0.1275 0 0 0 0 0.6375 0 0 0 0 0 0 0 0 1 0"/>
<feBlend mode="normal" in2="BackgroundImageFix" result="effect1_dropShadow_56_510"/>
<feBlend mode="normal" in="SourceGraphic" in2="effect1_dropShadow_56_510" result="shape"/>
</filter>
<filter id="filter13_d_56_510" x="244.746" y="226.354" width="70.456" height="53.1273" filterUnits="userSpaceOnUse" color-interpolation-filters="sRGB">
<feFlood flood-opacity="0" result="BackgroundImageFix"/>
<feColorMatrix in="SourceAlpha" type="matrix" values="0 0 0 0 0 0 0 0 0 0 0 0 0 0 0 0 0 0 127 0" result="hardAlpha"/>
<feOffset dy="5"/>
<feComposite in2="hardAlpha" operator="out"/>
<feColorMatrix type="matrix" values="0 0 0 0 0.155833 0 0 0 0 0.779167 0 0 0 0 0 0 0 0 1 0"/>
<feBlend mode="normal" in2="BackgroundImageFix" result="effect1_dropShadow_56_510"/>
<feBlend mode="normal" in="SourceGraphic" in2="effect1_dropShadow_56_510" result="shape"/>
</filter>
<filter id="filter14_d_56_510" x="264.877" y="245.605" width="80.5212" height="53.1273" filterUnits="userSpaceOnUse" color-interpolation-filters="sRGB">
<feFlood flood-opacity="0" result="BackgroundImageFix"/>
<feColorMatrix in="SourceAlpha" type="matrix" values="0 0 0 0 0 0 0 0 0 0 0 0 0 0 0 0 0 0 127 0" result="hardAlpha"/>
<feOffset dy="5"/>
<feComposite in2="hardAlpha" operator="out"/>
<feColorMatrix type="matrix" values="0 0 0 0 0.148972 0 0 0 0 0.720833 0 0 0 0 0.00600694 0 0 0 1 0"/>
<feBlend mode="normal" in2="BackgroundImageFix" result="effect1_dropShadow_56_510"/>
<feBlend mode="normal" in="SourceGraphic" in2="effect1_dropShadow_56_510" result="shape"/>
</filter>
<filter id="filter15_dd_56_510" x="264.877" y="216.728" width="100.651" height="53.1274" filterUnits="userSpaceOnUse" color-interpolation-filters="sRGB">
<feFlood flood-opacity="0" result="BackgroundImageFix"/>
<feColorMatrix in="SourceAlpha" type="matrix" values="0 0 0 0 0 0 0 0 0 0 0 0 0 0 0 0 0 0 127 0" result="hardAlpha"/>
<feOffset dy="5"/>
<feComposite in2="hardAlpha" operator="out"/>
<feColorMatrix type="matrix" values="0 0 0 0 0.820833 0 0 0 0 0.153359 0 0 0 0 0.00684028 0 0 0 1 0"/>
<feBlend mode="normal" in2="BackgroundImageFix" result="effect1_dropShadow_56_510"/>
<feColorMatrix in="SourceAlpha" type="matrix" values="0 0 0 0 0 0 0 0 0 0 0 0 0 0 0 0 0 0 127 0" result="hardAlpha"/>
<feOffset dy="0.5"/>
<feComposite in2="hardAlpha" operator="out"/>
<feColorMatrix type="matrix" values="0 0 0 0 0.820833 0 0 0 0 0.153359 0 0 0 0 0.00684028 0 0 0 1 0"/>
<feBlend mode="normal" in2="effect1_dropShadow_56_510" result="effect2_dropShadow_56_510"/>
<feBlend mode="normal" in="SourceGraphic" in2="effect2_dropShadow_56_510" result="shape"/>
</filter>
<filter id="filter16_d_56_510" x="264.877" y="168.601" width="100.651" height="77.3782" filterUnits="userSpaceOnUse" color-interpolation-filters="sRGB">
<feFlood flood-opacity="0" result="BackgroundImageFix"/>
<feColorMatrix in="SourceAlpha" type="matrix" values="0 0 0 0 0 0 0 0 0 0 0 0 0 0 0 0 0 0 127 0" result="hardAlpha"/>
<feOffset dy="10"/>
<feComposite in2="hardAlpha" operator="out"/>
<feColorMatrix type="matrix" values="0 0 0 0 0.8125 0 0 0 0 0.326651 0 0 0 0 0.0338542 0 0 0 1 0"/>
<feBlend mode="normal" in2="BackgroundImageFix" result="effect1_dropShadow_56_510"/>
<feBlend mode="normal" in="SourceGraphic" in2="effect1_dropShadow_56_510" result="shape"/>
</filter>
<linearGradient id="paint0_linear_56_510" x1="476.518" y1="49" x2="205.444" y2="96.2428" gradientUnits="userSpaceOnUse">
<stop stop-color="#FF8D2A"/>
<stop offset="1" stop-color="#FFC05A" stop-opacity="0.77"/>
</linearGradient>
<linearGradient id="paint1_linear_56_510" x1="83.7041" y1="187.234" x2="292.434" y2="214.171" gradientUnits="userSpaceOnUse">
<stop stop-color="#FF680D"/>
<stop offset="1" stop-color="#FFBB0D" stop-opacity="0"/>
</linearGradient>
<linearGradient id="paint2_linear_56_510" x1="393.98" y1="284.982" x2="569.869" y2="331.79" gradientUnits="userSpaceOnUse">
<stop stop-color="#FF680D"/>
<stop offset="1" stop-color="#FFBE15" stop-opacity="0.57"/>
</linearGradient>
<linearGradient id="paint3_linear_56_510" x1="157.248" y1="194.573" x2="270.361" y2="212.69" gradientUnits="userSpaceOnUse">
<stop stop-color="#FF680D"/>
<stop offset="1" stop-color="#FFBE15" stop-opacity="0.57"/>
</linearGradient>
<clipPath id="clip0_56_510">
<rect width="617" height="457" fill="white"/>
</clipPath>
</defs>
</svg>
